<?xml version="1.0" encoding="UTF-8" standalone="no"?>
<svg
   xmlns:dc="http://purl.org/dc/elements/1.1/"
   xmlns:cc="http://creativecommons.org/ns#"
   xmlns:rdf="http://www.w3.org/1999/02/22-rdf-syntax-ns#"
   xmlns:svg="http://www.w3.org/2000/svg"
   xmlns="http://www.w3.org/2000/svg"
   id="svg8"
   version="1.1"
   viewBox="0 0 67.73333 67.733335"
   height="256"
   width="256">
  <defs
     id="defs2" />
  <metadata
     id="metadata5">
    <rdf:RDF>
      <cc:Work
         rdf:about="">
        <dc:format>image/svg+xml</dc:format>
        <dc:type
           rdf:resource="http://purl.org/dc/dcmitype/StillImage" />
        <dc:title></dc:title>
      </cc:Work>
    </rdf:RDF>
  </metadata>
  <g
     transform="translate(0,-229.26665)"
     id="layer1">
    <path
       id="rect829"
       d="m 0,229.26665 h 67.73333 v 67.73333 H 0 Z"
       style="opacity:1;fill:#ffffff;fill-opacity:1;stroke:none;stroke-width:1.26999998;stroke-linejoin:miter;stroke-miterlimit:4;stroke-dasharray:none;stroke-opacity:1;paint-order:normal" />
    <path
       id="rect817"
       d="m 67.73333,229.26665 v 67.73333 H 0 l 16.933333,-50.8 z"
       style="opacity:1;fill:#eb2222;fill-opacity:1;stroke:none;stroke-width:1.26999998;stroke-linejoin:miter;stroke-miterlimit:4;stroke-dasharray:none;stroke-opacity:1;paint-order:normal" />
    <g
       id="text822"
       style="font-style:normal;font-variant:normal;font-weight:bold;font-stretch:normal;font-size:66.51262665px;line-height:1.25;font-family:'Aktiv Grotesk';-inkscape-font-specification:'Aktiv Grotesk Bold';text-align:center;letter-spacing:0px;word-spacing:0px;text-anchor:middle;fill:#ffffff;fill-opacity:1;stroke:none;stroke-width:1.66281557"
       aria-label="b">
      <path
         id="path824"
         style="font-style:normal;font-variant:normal;font-weight:bold;font-stretch:normal;font-family:'Aktiv Grotesk';-inkscape-font-specification:'Aktiv Grotesk Bold';fill:#ffffff;stroke-width:1.66281557"
         d="m 29.112971,247.18724 9.311768,-3.10392 0,18.15405 c 2.616163,-3.503 6.163503,-5.2545 10.64202,-5.2545 4.833251,0 8.447104,1.64064 10.841559,4.92193 2.394454,3.28129 3.591681,7.78198 3.591681,13.50207 0,2.74919 -0.354734,5.25449 -1.064202,7.51592 -0.665126,2.26143 -1.662815,4.21247 -2.993068,5.85311 -1.285911,1.59631 -2.860043,2.83788 -4.722396,3.72471 -1.862354,0.88683 -3.968587,1.33025 -6.3187,1.33025 -1.862353,0 -3.658194,-0.35473 -5.387523,-1.0642 -1.729328,-0.70947 -3.347802,-1.99538 -4.855421,-3.85773 v 3.85773 h -9.045718 z m 9.245256,28.48568 c 0,2.26143 0.177367,4.07944 0.532101,5.45403 0.399075,1.33025 1.01986,2.41663 1.862353,3.25912 0.886835,0.79815 1.77367,1.33025 2.660505,1.5963 0.931177,0.22171 1.862354,0.33257 2.793531,0.33257 1.01986,0 1.995378,-0.19954 2.926555,-0.59862 0.931177,-0.39907 1.729328,-1.01986 2.394455,-1.86235 0.709468,-0.88683 1.26374,-2.01755 1.662815,-3.39214 0.399076,-1.37459 0.598614,-3.03741 0.598614,-4.98845 0,-2.03972 -0.199538,-3.74688 -0.598614,-5.12147 -0.354734,-1.37459 -0.864664,-2.48314 -1.52979,-3.32563 -0.665127,-0.88684 -1.463278,-1.50763 -2.394455,-1.86236 -0.886835,-0.39907 -1.840182,-0.59861 -2.860043,-0.59861 -1.152885,0 -2.150575,0.1552 -2.993068,0.46559 -0.842493,0.31039 -1.662816,0.79815 -2.460967,1.46328 -0.886835,0.84249 -1.551962,1.90669 -1.995379,3.1926 -0.399075,1.28591 -0.598613,2.92656 -0.598613,4.92194 z" />
    </g>
  </g>
</svg>
